<svg viewBox="0 0 195 70" fill="none" xmlns="http://www.w3.org/2000/svg">
<path d="M194.099 35C194.099 22.1418 190.471 10.1432 184.197 0H0V70H184.197C190.471 59.8568 194.099 47.8582 194.099 35Z" fill="white"/>
<g clip-path="url(#clip0)">
<path fill-rule="evenodd" clip-rule="evenodd" d="M106.99 70H121.567C127.499 52.2938 139.426 36.4279 154.887 21.5775C153.373 16.7543 151.164 12.2484 148.387 8.18677C125.606 27.8604 114.247 50.3899 106.99 70Z" fill="url(#paint0_linear)"/>
<path opacity="0.9" fill-rule="evenodd" clip-rule="evenodd" d="M104.087 70.0001C112.038 48.9937 123.713 27.4797 148.135 7.86951C148.198 7.99643 148.261 8.0599 148.324 8.18682C125.543 27.8604 114.184 50.4534 106.926 70.0001H104.087Z" fill="#004114"/>
<path fill-rule="evenodd" clip-rule="evenodd" d="M141.698 0H101.436V17.6428H130.023L130.276 17.3889C130.591 17.0716 130.907 16.7543 131.285 16.437L131.538 16.1831C131.853 15.8658 132.232 15.5485 132.548 15.2312L132.8 14.9773C133.179 14.66 133.494 14.3427 133.873 14.0254L134.125 13.835C134.504 13.5177 134.882 13.2004 135.198 12.8196L135.387 12.6927C135.766 12.3753 136.145 12.058 136.523 11.6772L136.713 11.4869C137.091 11.1695 137.533 10.7888 137.912 10.4714L138.101 10.3445C138.543 10.0272 138.921 9.64642 139.363 9.3291L139.489 9.20218C139.931 8.8214 140.373 8.50408 140.751 8.1233L140.878 7.99637C141.319 7.61559 141.761 7.29828 142.203 6.9175L142.329 6.79057C142.771 6.40979 143.276 6.09247 143.717 5.7117L143.78 5.64823C144.285 5.26745 144.727 4.88667 145.232 4.50589L145.295 4.44243L145.547 4.25204C144.411 2.85585 143.086 1.39619 141.698 0Z" fill="url(#paint1_linear)"/>
<path d="M48.8688 13.4542C50.8882 8.63101 53.5386 4.06165 56.6939 0H61.7424C58.3978 4.06165 55.6211 8.56754 53.5386 13.4542H48.8688ZM55.7473 70C52.592 65.748 50.0047 60.9882 48.1115 55.9112H52.7182C54.6745 60.9882 57.3881 65.748 60.7327 70H55.7473ZM152.047 0C159.683 9.83681 164.227 22.1487 164.227 35.6029C164.227 48.4859 160.062 60.3536 152.994 70H148.009C155.392 60.544 159.809 48.6129 159.809 35.6029C159.809 22.0852 155.013 9.64642 146.999 0H152.047V0Z" fill="#D5D5D3"/>
<path d="M91.9702 46.1378C82.5043 47.4071 75.8151 46.2013 75.8151 39.5376V35.7933C75.8151 26.9084 86.7324 30.3355 91.9702 32.6836V46.1378ZM95.2518 33.0009C95.2518 27.5431 95.2518 20.9429 83.0092 20.9429L82.8199 23.418C90.7081 23.418 91.9702 26.845 91.9702 30.272C88.1208 27.3527 80.8636 26.02 76.6986 28.0508C74.3005 29.1931 72.6598 31.5413 72.6598 35.6664V39.1569C72.6598 51.4053 85.9752 49.6918 95.3149 48.8033V33.0009H95.2518ZM66.7278 48.7398V30.272C66.7278 21.8948 58.7764 18.7217 50.5726 22.466C50.4464 22.5295 48.9318 23.291 48.1115 23.7353C44.8299 20.4352 38.8349 20.0544 33.0291 23.291L33.3446 21.4506H30V48.8033H33.2815V25.7661C38.2669 23.0372 47.2911 22.0852 47.2911 30.4624V48.8033H50.5095V30.272C50.5095 28.5585 50.1309 27.0988 49.4998 25.8296L51.7085 24.8142C56.757 22.9737 63.4463 23.2276 63.4463 30.4624V48.8033H66.7278V48.7398Z" fill="#2F2C26"/>
<path d="M104.276 0H101.436V17.6428H104.276V0Z" fill="#6E0200"/>
</g>
<defs>
<linearGradient id="paint0_linear" x1="122.354" y1="52.1451" x2="154.981" y2="16.8757" gradientUnits="userSpaceOnUse">
<stop stop-color="#46975C"/>
<stop offset="1" stop-color="#F7F9F6"/>
</linearGradient>
<linearGradient id="paint1_linear" x1="101.467" y1="8.83206" x2="145.636" y2="8.83206" gradientUnits="userSpaceOnUse">
<stop stop-color="#AC2718"/>
<stop offset="1" stop-color="#E1A997"/>
</linearGradient>
<clipPath id="clip0">
<rect width="134.227" height="70" fill="white" transform="translate(30)"/>
</clipPath>
</defs>
</svg>