<?xml version="1.0" encoding="UTF-8"?>
<!DOCTYPE svg PUBLIC "-//W3C//DTD SVG 1.1//EN" "http://www.w3.org/Graphics/SVG/1.1/DTD/svg11.dtd">
<svg xmlns="http://www.w3.org/2000/svg" version="1.1" width="84px" height="95px" style="shape-rendering:geometricPrecision; text-rendering:geometricPrecision; image-rendering:optimizeQuality; fill-rule:evenodd; clip-rule:evenodd" xmlns:xlink="http://www.w3.org/1999/xlink">
<g><path style="opacity:1" fill="#8f8999" d="M 16.5,7.5 C 17.7498,7.57735 18.5831,8.24402 19,9.5C 20.0113,8.66337 21.1779,8.33003 22.5,8.5C 21.2317,9.78703 21.565,10.787 23.5,11.5C 22.4231,12.7051 21.0898,13.3718 19.5,13.5C 18.3991,12.4017 17.0657,12.235 15.5,13C 16.3802,14.3561 16.7135,15.8561 16.5,17.5C 15.7784,17.0825 15.2784,16.4158 15,15.5C 12.5615,16.8663 12.0615,16.3663 13.5,14C 11.9077,9.77496 10.9077,10.275 10.5,15.5C 9.44802,15.3505 8.44802,15.5172 7.5,16C 8.33663,17.0113 8.66997,18.1779 8.5,19.5C 7.36166,22.2675 5.52833,22.9341 3,21.5C 2.53566,22.0944 2.36899,22.7611 2.5,23.5C 1.16184,19.4946 1.49518,15.4946 3.5,11.5C 3.93205,10.2905 4.59872,9.29049 5.5,8.5C 5.36912,9.37644 5.70245,10.0431 6.5,10.5C 9.89651,9.28286 13.2298,8.28286 16.5,7.5 Z"/></g>
<g><path style="opacity:1" fill="#645c8a" d="M 16.5,17.5 C 13.7904,17.051 11.1237,17.7177 8.5,19.5C 8.66997,18.1779 8.33663,17.0113 7.5,16C 8.44802,15.5172 9.44802,15.3505 10.5,15.5C 10.9077,10.275 11.9077,9.77496 13.5,14C 12.0615,16.3663 12.5615,16.8663 15,15.5C 15.2784,16.4158 15.7784,17.0825 16.5,17.5 Z"/></g>
<g><path style="opacity:1" fill="#8a86a1" d="M 24.5,4.5 C 27.285,3.91618 28.9517,4.91618 29.5,7.5C 29.5,9.16667 29.5,10.8333 29.5,12.5C 28.1266,12.3433 26.7932,12.51 25.5,13C 28.0208,14.8292 30.6875,16.1625 33.5,17C 31.6905,14.1512 30.6905,10.9845 30.5,7.5C 34.5996,14.1882 38.5996,21.0215 42.5,28C 44.1686,28.1218 45.8353,27.7885 47.5,27C 48.6966,24.9847 50.0299,23.1513 51.5,21.5C 52.911,23.539 54.911,24.539 57.5,24.5C 57.9689,21.6067 56.9689,19.6067 54.5,18.5C 55.5116,17.1283 56.5116,15.795 57.5,14.5C 59.5116,13.9862 61.5116,13.8195 63.5,14C 63.9574,14.414 64.2907,14.914 64.5,15.5C 63.0508,16.1719 61.7175,16.8386 60.5,17.5C 60.5654,17.9382 60.3988,18.2716 60,18.5C 58.7964,17.5294 58.2964,16.5294 58.5,15.5C 57.8535,18.952 58.5201,22.2853 60.5,25.5C 58.463,25.4983 56.463,25.8316 54.5,26.5C 53.1266,26.3433 51.7932,26.51 50.5,27C 51.4506,27.7175 51.6172,28.5509 51,29.5C 49.0245,30.4279 47.1911,31.5946 45.5,33C 46.0659,33.9947 46.7326,34.828 47.5,35.5C 49.6456,35.6964 49.8122,36.6964 48,38.5C 46.9025,37.0325 45.4025,36.1992 43.5,36C 45.7416,34.9926 45.4082,34.1593 42.5,33.5C 40.5545,31.2931 38.3878,29.2931 36,27.5C 35.51,26.2068 35.3433,24.8734 35.5,23.5C 31.8649,23.6556 31.5315,24.8223 34.5,27C 34.1667,27.1667 33.8333,27.3333 33.5,27.5C 31.5914,26.6518 29.5914,26.3184 27.5,26.5C 27.5,24.8333 27.5,23.1667 27.5,21.5C 30.3356,21.7978 30.8356,21.1311 29,19.5C 27.5861,20.4132 26.0861,20.4132 24.5,19.5C 21.856,18.8561 20.1894,17.1894 19.5,14.5C 19.5,14.1667 19.5,13.8333 19.5,13.5C 21.0898,13.3718 22.4231,12.7051 23.5,11.5C 21.565,10.787 21.2317,9.78703 22.5,8.5C 24.0443,8.70311 25.3777,9.36977 26.5,10.5C 26.8333,10.1667 27.1667,9.83333 27.5,9.5C 26.286,7.93089 24.6193,7.09755 22.5,7C 23.0659,6.0053 23.7326,5.17197 24.5,4.5 Z"/></g>
<g><path style="opacity:1" fill="#322d84" d="M 29.5,7.5 C 29.8333,7.5 30.1667,7.5 30.5,7.5C 30.6905,10.9845 31.6905,14.1512 33.5,17C 30.6875,16.1625 28.0208,14.8292 25.5,13C 26.7932,12.51 28.1266,12.3433 29.5,12.5C 29.5,10.8333 29.5,9.16667 29.5,7.5 Z"/></g>
<g><path style="opacity:1" fill="#9d9ba8" d="M 19.5,14.5 C 20.1894,17.1894 21.856,18.8561 24.5,19.5C 24.5861,21.677 25.2528,23.677 26.5,25.5C 24.3448,25.838 22.0115,25.838 19.5,25.5C 18.3509,25.2089 17.6842,24.3756 17.5,23C 19.1911,20.1627 19.8577,17.3294 19.5,14.5 Z"/></g>
<g><path style="opacity:1" fill="#483f69" d="M 79.5,17.5 C 80.3382,17.8417 80.6716,18.5084 80.5,19.5C 80.8134,22.2469 80.48,24.9135 79.5,27.5C 77.8035,28.3636 76.6368,29.6969 76,31.5C 75.79,29.9419 75.29,28.6085 74.5,27.5C 73.2223,27.2178 72.2223,26.5511 71.5,25.5C 71.56,24.9569 71.8933,24.6236 72.5,24.5C 74.1789,26.1045 76.1789,26.7711 78.5,26.5C 78.2137,24.7231 77.5471,23.0564 76.5,21.5C 77.2858,19.9589 78.2858,18.6256 79.5,17.5 Z"/></g>
<g><path style="opacity:1" fill="#473c77" d="M 19.5,13.5 C 19.5,13.8333 19.5,14.1667 19.5,14.5C 19.8577,17.3294 19.1911,20.1627 17.5,23C 17.6842,24.3756 18.3509,25.2089 19.5,25.5C 18.0484,27.7742 18.715,29.2742 21.5,30C 20.0715,30.5791 18.7382,30.4124 17.5,29.5C 16.9101,28.234 16.4101,26.9007 16,25.5C 15.6667,25.8333 15.3333,26.1667 15,26.5C 15.2532,29.133 15.2532,31.7996 15,34.5C 13.6345,31.9382 11.8012,29.9382 9.5,28.5C 8.32496,28.719 7.32496,28.3857 6.5,27.5C 5.89728,26.3652 5.56395,25.3652 5.5,24.5C 4.61432,25.325 4.28099,26.325 4.5,27.5C 3.83333,26.1667 3.16667,24.8333 2.5,23.5C 2.36899,22.7611 2.53566,22.0944 3,21.5C 5.52833,22.9341 7.36166,22.2675 8.5,19.5C 11.1237,17.7177 13.7904,17.051 16.5,17.5C 16.7135,15.8561 16.3802,14.3561 15.5,13C 17.0657,12.235 18.3991,12.4017 19.5,13.5 Z"/></g>
<g><path style="opacity:1" fill="#918c9c" d="M 9.5,28.5 C 9.27858,27.2652 8.61191,26.2652 7.5,25.5C 8.37598,24.7492 9.37598,24.2492 10.5,24C 10.0426,23.586 9.70931,23.086 9.5,22.5C 11.5098,20.8287 13.8431,20.162 16.5,20.5C 16.2776,23.6853 14.7776,24.6853 12,23.5C 12.3333,24.8333 12.6667,26.1667 13,27.5C 11.9887,28.3366 10.8221,28.67 9.5,28.5 Z"/></g>
<g><path style="opacity:1" fill="#726e95" d="M 60.5,17.5 C 61.1667,17.8333 61.8333,18.1667 62.5,18.5C 60.5901,19.684 60.2568,21.184 61.5,23C 63.5817,22.0677 65.915,21.5677 68.5,21.5C 68.5,22.8333 68.5,24.1667 68.5,25.5C 67.8485,26.0906 67.1818,26.7573 66.5,27.5C 65.914,27.2907 65.414,26.9574 65,26.5C 63.3057,27.6988 61.8057,29.0322 60.5,30.5C 59.6082,27.7079 57.6082,26.3746 54.5,26.5C 56.463,25.8316 58.463,25.4983 60.5,25.5C 58.5201,22.2853 57.8535,18.952 58.5,15.5C 58.2964,16.5294 58.7964,17.5294 60,18.5C 60.3988,18.2716 60.5654,17.9382 60.5,17.5 Z"/></g>
<g><path style="opacity:1" fill="#615a8b" d="M 24.5,19.5 C 26.0861,20.4132 27.5861,20.4132 29,19.5C 30.8356,21.1311 30.3356,21.7978 27.5,21.5C 27.5,23.1667 27.5,24.8333 27.5,26.5C 29.5914,26.3184 31.5914,26.6518 33.5,27.5C 33.8333,27.3333 34.1667,27.1667 34.5,27C 31.5315,24.8223 31.8649,23.6556 35.5,23.5C 35.3433,24.8734 35.51,26.2068 36,27.5C 38.3878,29.2931 40.5545,31.2931 42.5,33.5C 41.6716,35.0749 41.3382,36.4082 41.5,37.5C 40.7326,36.828 40.0659,35.9947 39.5,35C 38.5632,34.3083 37.8966,34.475 37.5,35.5C 36.0413,35.4326 34.7079,35.7659 33.5,36.5C 33.5,35.8333 33.5,35.1667 33.5,34.5C 33.7539,29.5057 31.4206,27.339 26.5,28C 25.6634,29.0113 25.33,30.1779 25.5,31.5C 23.8967,31.3118 22.5634,31.8118 21.5,33C 23.2182,33.346 24.8849,33.846 26.5,34.5C 28.0478,31.9925 29.0478,32.3259 29.5,35.5C 29.1667,35.5 28.8333,35.5 28.5,35.5C 27.0222,35.238 25.6888,35.5713 24.5,36.5C 22.7523,38.8001 20.7523,40.8001 18.5,42.5C 17.791,41.596 16.791,41.2627 15.5,41.5C 15.5,40.5 15.5,39.5 15.5,38.5C 17.0605,40.6353 18.7271,40.802 20.5,39C 20.1321,36.9667 20.1321,34.8001 20.5,32.5C 19.7261,31.2888 18.8928,31.2888 18,32.5C 17.5172,31.552 17.3505,30.552 17.5,29.5C 18.7382,30.4124 20.0715,30.5791 21.5,30C 18.715,29.2742 18.0484,27.7742 19.5,25.5C 22.0115,25.838 24.3448,25.838 26.5,25.5C 25.2528,23.677 24.5861,21.677 24.5,19.5 Z"/></g>
<g><path style="opacity:1" fill="#9f9dab" d="M 54.5,26.5 C 57.6082,26.3746 59.6082,27.7079 60.5,30.5C 59.3202,32.913 57.3202,33.913 54.5,33.5C 54.6495,32.448 54.4828,31.448 54,30.5C 53.5831,31.756 52.7498,32.4226 51.5,32.5C 51.9752,30.2163 52.9752,28.2163 54.5,26.5 Z"/></g>
<g><path style="opacity:1" fill="#463b82" d="M 54.5,26.5 C 52.9752,28.2163 51.9752,30.2163 51.5,32.5C 49.3812,32.4677 48.0478,33.4677 47.5,35.5C 46.7326,34.828 46.0659,33.9947 45.5,33C 47.1911,31.5946 49.0245,30.4279 51,29.5C 51.6172,28.5509 51.4506,27.7175 50.5,27C 51.7932,26.51 53.1266,26.3433 54.5,26.5 Z"/></g>
<g><path style="opacity:1" fill="#89879b" d="M 71.5,25.5 C 72.2223,26.5511 73.2223,27.2178 74.5,27.5C 74.5,28.8333 74.5,30.1667 74.5,31.5C 73.1667,31.5 71.8333,31.5 70.5,31.5C 70.5654,31.0618 70.3988,30.7284 70,30.5C 69.8008,32.4025 68.9675,33.9025 67.5,35C 68.9733,35.7096 69.6399,36.8762 69.5,38.5C 68.1667,38.5 66.8333,38.5 65.5,38.5C 65.6495,37.448 65.4828,36.448 65,35.5C 64.2825,36.4506 63.4491,36.6172 62.5,36C 63.3279,35.0853 64.3279,34.4186 65.5,34C 64.3279,33.5814 63.3279,32.9147 62.5,32C 65.3905,30.5688 68.0572,29.0688 70.5,27.5C 71.3382,27.1583 71.6716,26.4916 71.5,25.5 Z"/></g>
<g><path style="opacity:1" fill="#615d6e" d="M 80.5,19.5 C 82.1779,27.7995 80.5112,35.4662 75.5,42.5C 74.9717,41.2794 74.305,40.1127 73.5,39C 74.448,38.5172 75.448,38.3505 76.5,38.5C 76.4208,37.0695 76.7542,35.7362 77.5,34.5C 75.5988,33.7691 73.5988,33.7691 71.5,34.5C 71.4431,33.391 71.1098,32.391 70.5,31.5C 71.8333,31.5 73.1667,31.5 74.5,31.5C 74.5,30.1667 74.5,28.8333 74.5,27.5C 75.29,28.6085 75.79,29.9419 76,31.5C 76.6368,29.6969 77.8035,28.3636 79.5,27.5C 80.48,24.9135 80.8134,22.2469 80.5,19.5 Z"/></g>
<g><path style="opacity:1" fill="#9a98a7" d="M 33.5,34.5 C 32.1667,34.8333 30.8333,35.1667 29.5,35.5C 29.0478,32.3259 28.0478,31.9925 26.5,34.5C 24.8849,33.846 23.2182,33.346 21.5,33C 22.5634,31.8118 23.8967,31.3118 25.5,31.5C 25.33,30.1779 25.6634,29.0113 26.5,28C 31.4206,27.339 33.7539,29.5057 33.5,34.5 Z"/></g>
<g><path style="opacity:1" fill="#807683" d="M 9.5,28.5 C 11.8012,29.9382 13.6345,31.9382 15,34.5C 15.2532,31.7996 15.2532,29.133 15,26.5C 15.3333,26.1667 15.6667,25.8333 16,25.5C 16.4101,26.9007 16.9101,28.234 17.5,29.5C 17.3505,30.552 17.5172,31.552 18,32.5C 18.8928,31.2888 19.7261,31.2888 20.5,32.5C 20.1321,34.8001 20.1321,36.9667 20.5,39C 18.7271,40.802 17.0605,40.6353 15.5,38.5C 14.5313,37.6906 13.6979,36.6906 13,35.5C 12.6667,35.8333 12.3333,36.1667 12,36.5C 11.3162,35.2161 11.4829,34.0495 12.5,33C 11.5165,32.4092 10.8499,32.7425 10.5,34C 9.04377,37.1705 10.0438,39.3371 13.5,40.5C 12.8728,41.4168 12.5394,42.4168 12.5,43.5C 11.8333,43.1667 11.1667,42.8333 10.5,42.5C 7.6902,37.8722 5.6902,32.8722 4.5,27.5C 4.28099,26.325 4.61432,25.325 5.5,24.5C 5.56395,25.3652 5.89728,26.3652 6.5,27.5C 7.32496,28.3857 8.32496,28.719 9.5,28.5 Z"/></g>
<g><path style="opacity:1" fill="#443888" d="M 41.5,37.5 C 42.686,39.1942 42.5193,40.8608 41,42.5C 40.861,39.5547 39.6943,37.2214 37.5,35.5C 37.8966,34.475 38.5632,34.3083 39.5,35C 40.0659,35.9947 40.7326,36.828 41.5,37.5 Z"/></g>
<g><path style="opacity:1" fill="#3c347b" d="M 68.5,25.5 C 68.5,26.8333 69.1667,27.5 70.5,27.5C 68.0572,29.0688 65.3905,30.5688 62.5,32C 63.3279,32.9147 64.3279,33.5814 65.5,34C 64.3279,34.4186 63.3279,35.0853 62.5,36C 63.4491,36.6172 64.2825,36.4506 65,35.5C 65.4828,36.448 65.6495,37.448 65.5,38.5C 62.5941,38.9026 60.7607,40.5693 60,43.5C 59.6667,42.8333 59.3333,42.1667 59,41.5C 58.2588,42.6405 57.4255,42.6405 56.5,41.5C 55.6922,43.4233 55.1922,45.4233 55,47.5C 54.304,44.5219 53.804,41.5219 53.5,38.5C 55.4835,38.3832 57.1502,39.0499 58.5,40.5C 61.9302,39.2318 62.2635,37.2318 59.5,34.5C 58.8076,35.0253 58.3076,35.6919 58,36.5C 55.6572,36.0999 53.4905,34.7666 51.5,32.5C 52.7498,32.4226 53.5831,31.756 54,30.5C 54.4828,31.448 54.6495,32.448 54.5,33.5C 57.3202,33.913 59.3202,32.913 60.5,30.5C 61.8057,29.0322 63.3057,27.6988 65,26.5C 65.414,26.9574 65.914,27.2907 66.5,27.5C 67.1818,26.7573 67.8485,26.0906 68.5,25.5 Z"/></g>
<g><path style="opacity:1" fill="#221c5c" d="M 70.5,31.5 C 71.1098,32.391 71.4431,33.391 71.5,34.5C 70.9826,36.5095 70.316,37.8429 69.5,38.5C 69.6399,36.8762 68.9733,35.7096 67.5,35C 68.9675,33.9025 69.8008,32.4025 70,30.5C 70.3988,30.7284 70.5654,31.0618 70.5,31.5 Z"/></g>
<g><path style="opacity:1" fill="#342851" d="M 15.5,38.5 C 14.9348,40.42 13.9348,42.0867 12.5,43.5C 12.5394,42.4168 12.8728,41.4168 13.5,40.5C 10.0438,39.3371 9.04377,37.1705 10.5,34C 10.8499,32.7425 11.5165,32.4092 12.5,33C 11.4829,34.0495 11.3162,35.2161 12,36.5C 12.3333,36.1667 12.6667,35.8333 13,35.5C 13.6979,36.6906 14.5313,37.6906 15.5,38.5 Z"/></g>
<g><path style="opacity:1" fill="#f8d5a0" d="M -0.5,1.5 C 0.368899,3.98402 1.03557,6.65068 1.5,9.5C 1.74716,10.7133 2.41383,11.38 3.5,11.5C 1.49518,15.4946 1.16184,19.4946 2.5,23.5C 3.16667,24.8333 3.83333,26.1667 4.5,27.5C 5.6902,32.8722 7.6902,37.8722 10.5,42.5C 10.838,44.854 11.338,47.1873 12,49.5C 16.5964,57.0365 21.4297,64.3698 26.5,71.5C 28.4945,77.7734 30.4945,84.1067 32.5,90.5C 33.8734,90.6567 35.2068,90.49 36.5,90C 38.0375,88.2927 39.7041,86.7927 41.5,85.5C 42.4625,91.8935 43.7959,91.7268 45.5,85C 45.1667,84.6667 44.8333,84.3333 44.5,84C 45.635,83.2506 46.635,83.4173 47.5,84.5C 46.1276,88.0255 44.4609,91.3589 42.5,94.5C 28.1667,94.5 13.8333,94.5 -0.5,94.5C -0.5,63.5 -0.5,32.5 -0.5,1.5 Z"/></g>
<g><path style="opacity:1" fill="#3d337d" d="M 33.5,34.5 C 33.5,35.1667 33.5,35.8333 33.5,36.5C 30.8727,36.7903 29.2061,38.1236 28.5,40.5C 27.5222,40.189 26.8555,39.5223 26.5,38.5C 27.6119,37.7348 28.2786,36.7348 28.5,35.5C 28.8333,35.5 29.1667,35.5 29.5,35.5C 30.8333,35.1667 32.1667,34.8333 33.5,34.5 Z"/></g>
<g><path style="opacity:1" fill="#3c364f" d="M 75.5,42.5 C 73.5588,42.8693 71.7255,43.536 70,44.5C 69.4926,45.9961 69.9926,47.1627 71.5,48C 70.5509,48.6172 69.7175,48.4506 69,47.5C 68.51,48.7932 68.3433,50.1266 68.5,51.5C 65.2027,51.6713 64.8694,51.0046 67.5,49.5C 66.8671,47.4807 65.8671,47.1474 64.5,48.5C 64.6845,45.8269 65.8511,45.1602 68,46.5C 68.4922,45.451 68.3256,44.451 67.5,43.5C 68.1667,42.8333 68.8333,42.1667 69.5,41.5C 67.8164,40.8503 66.4831,39.8503 65.5,38.5C 66.8333,38.5 68.1667,38.5 69.5,38.5C 70.316,37.8429 70.9826,36.5095 71.5,34.5C 73.5988,33.7691 75.5988,33.7691 77.5,34.5C 76.7542,35.7362 76.4208,37.0695 76.5,38.5C 75.448,38.3505 74.448,38.5172 73.5,39C 74.305,40.1127 74.9717,41.2794 75.5,42.5 Z"/></g>
<g><path style="opacity:1" fill="#f9d6a0" d="M -0.5,-0.5 C 27.5,-0.5 55.5,-0.5 83.5,-0.5C 83.5,31.1667 83.5,62.8333 83.5,94.5C 69.8333,94.5 56.1667,94.5 42.5,94.5C 44.4609,91.3589 46.1276,88.0255 47.5,84.5C 46.635,83.4173 45.635,83.2506 44.5,84C 44.8333,84.3333 45.1667,84.6667 45.5,85C 43.7959,91.7268 42.4625,91.8935 41.5,85.5C 41.5569,84.391 41.8902,83.391 42.5,82.5C 42.8333,81.8333 43.1667,81.1667 43.5,80.5C 46.5,78.1667 49.1667,75.5 51.5,72.5C 57.6044,67.3977 62.6044,61.3977 66.5,54.5C 70.967,51.5513 73.967,47.5513 75.5,42.5C 80.5112,35.4662 82.1779,27.7995 80.5,19.5C 80.6716,18.5084 80.3382,17.8417 79.5,17.5C 78.7258,14.2249 76.7258,12.0583 73.5,11C 69.5,10.3333 65.5,10.3333 61.5,11C 60.5842,11.2784 59.9175,11.7784 59.5,12.5C 58.5,12.8333 57.8333,13.5 57.5,14.5C 56.5116,15.795 55.5116,17.1283 54.5,18.5C 53.1667,19.1667 52.1667,20.1667 51.5,21.5C 50.0299,23.1513 48.6966,24.9847 47.5,27C 45.8353,27.7885 44.1686,28.1218 42.5,28C 38.5996,21.0215 34.5996,14.1882 30.5,7.5C 30.1667,7.5 29.8333,7.5 29.5,7.5C 28.9517,4.91618 27.285,3.91618 24.5,4.5C 23.2318,2.95302 21.5652,1.95302 19.5,1.5C 15.8222,0.00394191 12.4889,0.670609 9.5,3.5C 7.93731,4.94478 6.60398,6.61145 5.5,8.5C 4.59872,9.29049 3.93205,10.2905 3.5,11.5C 2.41383,11.38 1.74716,10.7133 1.5,9.5C 1.03557,6.65068 0.368899,3.98402 -0.5,1.5C -0.5,0.833333 -0.5,0.166667 -0.5,-0.5 Z"/></g>
<g><path style="opacity:1" fill="#9292a8" d="M 71.5,16.5 C 72.8235,15.1501 73.8235,15.3167 74.5,17C 71.6105,18.8918 71.9438,19.7251 75.5,19.5C 76.0547,23.5841 75.0547,24.2508 72.5,21.5C 71.3331,23.0792 69.9998,24.4125 68.5,25.5C 68.5,24.1667 68.5,22.8333 68.5,21.5C 65.915,21.5677 63.5817,22.0677 61.5,23C 60.2568,21.184 60.5901,19.684 62.5,18.5C 63.1894,17.2264 64.0228,17.2264 65,18.5C 66.7789,16.0698 68.9456,15.4031 71.5,16.5 Z"/></g>
<g><path style="opacity:1" fill="#6d638e" d="M 54.5,18.5 C 56.9689,19.6067 57.9689,21.6067 57.5,24.5C 54.911,24.539 52.911,23.539 51.5,21.5C 52.1667,20.1667 53.1667,19.1667 54.5,18.5 Z"/></g>
<g><path style="opacity:1" fill="#423987" d="M 59.5,12.5 C 62.5959,11.9066 64.9292,12.9066 66.5,15.5C 68.7615,13.8269 70.4282,14.1602 71.5,16.5C 68.9456,15.4031 66.7789,16.0698 65,18.5C 64.0228,17.2264 63.1894,17.2264 62.5,18.5C 61.8333,18.1667 61.1667,17.8333 60.5,17.5C 61.7175,16.8386 63.0508,16.1719 64.5,15.5C 64.2907,14.914 63.9574,14.414 63.5,14C 61.5116,13.8195 59.5116,13.9862 57.5,14.5C 57.8333,13.5 58.5,12.8333 59.5,12.5 Z"/></g>
<g><path style="opacity:1" fill="#6d6a95" d="M 79.5,17.5 C 78.2858,18.6256 77.2858,19.9589 76.5,21.5C 77.5471,23.0564 78.2137,24.7231 78.5,26.5C 76.1789,26.7711 74.1789,26.1045 72.5,24.5C 71.8933,24.6236 71.56,24.9569 71.5,25.5C 71.6716,26.4916 71.3382,27.1583 70.5,27.5C 69.1667,27.5 68.5,26.8333 68.5,25.5C 69.9998,24.4125 71.3331,23.0792 72.5,21.5C 75.0547,24.2508 76.0547,23.5841 75.5,19.5C 71.9438,19.7251 71.6105,18.8918 74.5,17C 73.8235,15.3167 72.8235,15.1501 71.5,16.5C 70.4282,14.1602 68.7615,13.8269 66.5,15.5C 64.9292,12.9066 62.5959,11.9066 59.5,12.5C 59.9175,11.7784 60.5842,11.2784 61.5,11C 65.5,10.3333 69.5,10.3333 73.5,11C 76.7258,12.0583 78.7258,14.2249 79.5,17.5 Z"/></g>
<g><path style="opacity:1" fill="#6e668b" d="M 17.5,5.5 C 16.6618,5.84171 16.3284,6.50838 16.5,7.5C 13.2298,8.28286 9.89651,9.28286 6.5,10.5C 5.70245,10.0431 5.36912,9.37644 5.5,8.5C 6.60398,6.61145 7.93731,4.94478 9.5,3.5C 11.0174,3.51056 12.1841,4.17723 13,5.5C 15.034,1.82776 16.534,1.82776 17.5,5.5 Z"/></g>
<g><path style="opacity:1" fill="#453e88" d="M 19.5,1.5 C 21.5652,1.95302 23.2318,2.95302 24.5,4.5C 23.7326,5.17197 23.0659,6.0053 22.5,7C 24.6193,7.09755 26.286,7.93089 27.5,9.5C 27.1667,9.83333 26.8333,10.1667 26.5,10.5C 25.3777,9.36977 24.0443,8.70311 22.5,8.5C 21.1779,8.33003 20.0113,8.66337 19,9.5C 18.5831,8.24402 17.7498,7.57735 16.5,7.5C 16.3284,6.50838 16.6618,5.84171 17.5,5.5C 18.7079,6.23411 20.0413,6.56745 21.5,6.5C 21.5,5.5 21.5,4.5 21.5,3.5C 20.325,3.71901 19.325,3.38568 18.5,2.5C 18.6236,1.89333 18.9569,1.55999 19.5,1.5 Z"/></g>
<g><path style="opacity:1" fill="#a5a2b1" d="M 19.5,1.5 C 18.9569,1.55999 18.6236,1.89333 18.5,2.5C 19.325,3.38568 20.325,3.71901 21.5,3.5C 21.5,4.5 21.5,5.5 21.5,6.5C 20.0413,6.56745 18.7079,6.23411 17.5,5.5C 16.534,1.82776 15.034,1.82776 13,5.5C 12.1841,4.17723 11.0174,3.51056 9.5,3.5C 12.4889,0.670609 15.8222,0.00394191 19.5,1.5 Z"/></g>
<g><path style="opacity:1" fill="#928f9d" d="M 28.5,35.5 C 28.2786,36.7348 27.6119,37.7348 26.5,38.5C 26.8555,39.5223 27.5222,40.189 28.5,40.5C 28.2155,42.8771 28.2155,45.0438 28.5,47C 27.7562,48.0386 26.7562,48.5386 25.5,48.5C 24.7211,46.0728 23.5545,46.0728 22,48.5C 21.51,47.2068 21.3433,45.8734 21.5,44.5C 19.8212,44.7148 18.8212,44.0481 18.5,42.5C 20.7523,40.8001 22.7523,38.8001 24.5,36.5C 25.6888,35.5713 27.0222,35.238 28.5,35.5 Z"/></g>
<g><path style="opacity:1" fill="#898697" d="M 51.5,32.5 C 53.4905,34.7666 55.6572,36.0999 58,36.5C 58.3076,35.6919 58.8076,35.0253 59.5,34.5C 62.2635,37.2318 61.9302,39.2318 58.5,40.5C 57.1502,39.0499 55.4835,38.3832 53.5,38.5C 53.804,41.5219 54.304,44.5219 55,47.5C 55.1922,45.4233 55.6922,43.4233 56.5,41.5C 57.4255,42.6405 58.2588,42.6405 59,41.5C 59.3333,42.1667 59.6667,42.8333 60,43.5C 60.7607,40.5693 62.5941,38.9026 65.5,38.5C 66.4831,39.8503 67.8164,40.8503 69.5,41.5C 68.8333,42.1667 68.1667,42.8333 67.5,43.5C 68.3256,44.451 68.4922,45.451 68,46.5C 65.8511,45.1602 64.6845,45.8269 64.5,48.5C 64.2172,49.2891 63.7172,49.9558 63,50.5C 61.883,49.0506 61.2163,47.3839 61,45.5C 60.3483,47.7231 58.8483,48.8898 56.5,49C 58.437,49.1216 59.7703,49.955 60.5,51.5C 58.2341,51.1412 56.4007,51.8078 55,53.5C 53.5589,52.7402 52.0589,52.0736 50.5,51.5C 49.2888,50.7261 49.2888,49.8928 50.5,49C 49.552,48.5172 48.552,48.3505 47.5,48.5C 47.6214,52.1269 49.4547,54.4602 53,55.5C 55.2345,54.0198 57.0679,54.3531 58.5,56.5C 57.1667,56.5 56.5,57.1667 56.5,58.5C 54.5509,59.7247 53.2175,59.058 52.5,56.5C 50.3576,57.4371 50.0243,58.7704 51.5,60.5C 50.4082,60.3382 49.0749,60.6716 47.5,61.5C 45.8235,60.8166 45.1568,59.4832 45.5,57.5C 44.5,57.5 43.5,57.5 42.5,57.5C 42.5774,56.2502 43.244,55.4169 44.5,55C 43.8921,54.1301 43.0588,53.6301 42,53.5C 38.3813,57.835 35.3813,57.5017 33,52.5C 32.3551,53.646 31.5217,54.646 30.5,55.5C 33.0715,56.7277 34.4048,58.7277 34.5,61.5C 33.5,61.5 32.5,61.5 31.5,61.5C 31.8333,58.5 30.5,57.1667 27.5,57.5C 27.5,58.5 27.5,59.5 27.5,60.5C 26.5416,60.9528 25.7083,61.6195 25,62.5C 22.1954,58.909 21.1954,54.909 22,50.5C 22.6708,49.7476 23.5041,49.4142 24.5,49.5C 25.7206,50.0283 26.8873,50.695 28,51.5C 30.4468,48.2915 32.1134,48.2915 33,51.5C 34.3333,49.5 35.6667,47.5 37,45.5C 37.4828,46.448 37.6495,47.448 37.5,48.5C 39.6087,49.4033 41.6087,50.2367 43.5,51C 43.0675,48.8276 42.7341,46.6609 42.5,44.5C 40.8767,45.4756 39.5433,44.9756 38.5,43C 35.5075,41.9121 34.5075,42.5787 35.5,45C 34.6667,47.5 33.1667,48 31,46.5C 30.2797,44.8876 30.4464,43.3876 31.5,42C 30.4734,41.4867 29.4734,40.9867 28.5,40.5C 29.2061,38.1236 30.8727,36.7903 33.5,36.5C 34.7079,35.7659 36.0413,35.4326 37.5,35.5C 39.6943,37.2214 40.861,39.5547 41,42.5C 42.5193,40.8608 42.686,39.1942 41.5,37.5C 41.3382,36.4082 41.6716,35.0749 42.5,33.5C 45.4082,34.1593 45.7416,34.9926 43.5,36C 45.4025,36.1992 46.9025,37.0325 48,38.5C 49.8122,36.6964 49.6456,35.6964 47.5,35.5C 48.0478,33.4677 49.3812,32.4677 51.5,32.5 Z"/></g>
<g><path style="opacity:1" fill="#423883" d="M 47.5,39.5 C 48.0967,39.7352 48.4301,40.2352 48.5,41C 47.6815,42.3188 46.6815,43.4855 45.5,44.5C 44.646,43.4783 43.646,42.6449 42.5,42C 44.1749,41.0147 45.8415,40.1814 47.5,39.5 Z"/></g>
<g><path style="opacity:1" fill="#443b79" d="M 28.5,40.5 C 29.4734,40.9867 30.4734,41.4867 31.5,42C 30.4464,43.3876 30.2797,44.8876 31,46.5C 33.1667,48 34.6667,47.5 35.5,45C 34.5075,42.5787 35.5075,41.9121 38.5,43C 39.5433,44.9756 40.8767,45.4756 42.5,44.5C 42.7341,46.6609 43.0675,48.8276 43.5,51C 41.6087,50.2367 39.6087,49.4033 37.5,48.5C 37.6495,47.448 37.4828,46.448 37,45.5C 35.6667,47.5 34.3333,49.5 33,51.5C 32.1134,48.2915 30.4468,48.2915 28,51.5C 26.8873,50.695 25.7206,50.0283 24.5,49.5C 24.5,48.8333 24.8333,48.5 25.5,48.5C 26.7562,48.5386 27.7562,48.0386 28.5,47C 28.2155,45.0438 28.2155,42.8771 28.5,40.5 Z"/></g>
<g><path style="opacity:1" fill="#3d355c" d="M 60.5,51.5 C 59.0834,54.3549 59.75,56.6882 62.5,58.5C 62.1667,58.8333 61.8333,59.1667 61.5,59.5C 60.452,58.452 59.452,57.452 58.5,56.5C 57.0679,54.3531 55.2345,54.0198 53,55.5C 49.4547,54.4602 47.6214,52.1269 47.5,48.5C 48.552,48.3505 49.552,48.5172 50.5,49C 49.2888,49.8928 49.2888,50.7261 50.5,51.5C 52.0589,52.0736 53.5589,52.7402 55,53.5C 56.4007,51.8078 58.2341,51.1412 60.5,51.5 Z"/></g>
<g><path style="opacity:1" fill="#caa872" d="M 10.5,42.5 C 11.1667,42.8333 11.8333,43.1667 12.5,43.5C 16.1952,50.1838 19.8618,56.8505 23.5,63.5C 25.4607,65.7982 26.4607,68.4649 26.5,71.5C 21.4297,64.3698 16.5964,57.0365 12,49.5C 11.338,47.1873 10.838,44.854 10.5,42.5 Z"/></g>
<g><path style="opacity:1" fill="#241b47" d="M 56.5,58.5 C 55.9944,61.734 54.3278,62.4007 51.5,60.5C 50.0243,58.7704 50.3576,57.4371 52.5,56.5C 53.2175,59.058 54.5509,59.7247 56.5,58.5 Z"/></g>
<g><path style="opacity:1" fill="#868493" d="M 42.5,57.5 C 42.67,58.8221 42.3366,59.9887 41.5,61C 43.0664,61.6082 44.3998,62.4415 45.5,63.5C 44.1207,63.6715 42.4541,63.8382 40.5,64C 44.0397,64.3287 45.2064,66.162 44,69.5C 43.3292,70.2524 42.4959,70.5858 41.5,70.5C 40.4096,68.0022 39.4096,65.5022 38.5,63C 39.8503,60.9447 39.517,59.4447 37.5,58.5C 39.0453,57.5481 40.712,57.2148 42.5,57.5 Z"/></g>
<g><path style="opacity:1" fill="#282059" d="M 42.5,57.5 C 43.5,57.5 44.5,57.5 45.5,57.5C 45.1568,59.4832 45.8235,60.8166 47.5,61.5C 47.9175,62.2216 48.5842,62.7216 49.5,63C 48.8095,64.0674 48.3095,65.2341 48,66.5C 47.6232,65.0577 46.7899,64.0577 45.5,63.5C 44.3998,62.4415 43.0664,61.6082 41.5,61C 42.3366,59.9887 42.67,58.8221 42.5,57.5 Z"/></g>
<g><path style="opacity:1" fill="#655a6e" d="M 15.5,38.5 C 15.5,39.5 15.5,40.5 15.5,41.5C 16.791,41.2627 17.791,41.596 18.5,42.5C 18.8212,44.0481 19.8212,44.7148 21.5,44.5C 21.3433,45.8734 21.51,47.2068 22,48.5C 23.5545,46.0728 24.7211,46.0728 25.5,48.5C 24.8333,48.5 24.5,48.8333 24.5,49.5C 23.5041,49.4142 22.6708,49.7476 22,50.5C 21.1954,54.909 22.1954,58.909 25,62.5C 25.7083,61.6195 26.5416,60.9528 27.5,60.5C 28.1667,60.5 28.5,60.8333 28.5,61.5C 27.1805,62.9418 25.5138,63.6085 23.5,63.5C 19.8618,56.8505 16.1952,50.1838 12.5,43.5C 13.9348,42.0867 14.9348,40.42 15.5,38.5 Z"/></g>
<g><path style="opacity:1" fill="#3e3568" d="M 42.5,57.5 C 40.712,57.2148 39.0453,57.5481 37.5,58.5C 39.517,59.4447 39.8503,60.9447 38.5,63C 39.4096,65.5022 40.4096,68.0022 41.5,70.5C 39.5588,70.8693 37.7255,71.536 36,72.5C 35.5,72 35,71.5 34.5,71C 35.9448,69.2897 36.7782,67.4564 37,65.5C 35.9989,62.7844 34.3323,62.1178 32,63.5C 30.9231,62.5705 29.7564,61.9038 28.5,61.5C 28.5,60.8333 28.1667,60.5 27.5,60.5C 27.5,59.5 27.5,58.5 27.5,57.5C 30.5,57.1667 31.8333,58.5 31.5,61.5C 32.5,61.5 33.5,61.5 34.5,61.5C 34.4048,58.7277 33.0715,56.7277 30.5,55.5C 31.5217,54.646 32.3551,53.646 33,52.5C 35.3813,57.5017 38.3813,57.835 42,53.5C 43.0588,53.6301 43.8921,54.1301 44.5,55C 43.244,55.4169 42.5774,56.2502 42.5,57.5 Z"/></g>
<g><path style="opacity:1" fill="#756f7b" d="M 28.5,61.5 C 29.7564,61.9038 30.9231,62.5705 32,63.5C 34.3323,62.1178 35.9989,62.7844 37,65.5C 36.7782,67.4564 35.9448,69.2897 34.5,71C 35,71.5 35.5,72 36,72.5C 37.7255,71.536 39.5588,70.8693 41.5,70.5C 41.2786,71.7348 40.6119,72.7348 39.5,73.5C 40.1667,74.8333 40.8333,76.1667 41.5,77.5C 38.59,80.7371 38.9233,82.4038 42.5,82.5C 41.8902,83.391 41.5569,84.391 41.5,85.5C 39.7041,86.7927 38.0375,88.2927 36.5,90C 35.2068,90.49 33.8734,90.6567 32.5,90.5C 30.4945,84.1067 28.4945,77.7734 26.5,71.5C 26.4607,68.4649 25.4607,65.7982 23.5,63.5C 25.5138,63.6085 27.1805,62.9418 28.5,61.5 Z"/></g>
<g><path style="opacity:1" fill="#544b58" d="M 75.5,42.5 C 73.967,47.5513 70.967,51.5513 66.5,54.5C 62.6044,61.3977 57.6044,67.3977 51.5,72.5C 48.4633,70.8141 47.13,71.8141 47.5,75.5C 44.0897,75.3838 42.7564,77.0504 43.5,80.5C 43.1667,81.1667 42.8333,81.8333 42.5,82.5C 38.9233,82.4038 38.59,80.7371 41.5,77.5C 40.8333,76.1667 40.1667,74.8333 39.5,73.5C 40.6119,72.7348 41.2786,71.7348 41.5,70.5C 42.4959,70.5858 43.3292,70.2524 44,69.5C 45.2064,66.162 44.0397,64.3287 40.5,64C 42.4541,63.8382 44.1207,63.6715 45.5,63.5C 46.7899,64.0577 47.6232,65.0577 48,66.5C 48.3095,65.2341 48.8095,64.0674 49.5,63C 48.5842,62.7216 47.9175,62.2216 47.5,61.5C 49.0749,60.6716 50.4082,60.3382 51.5,60.5C 54.3278,62.4007 55.9944,61.734 56.5,58.5C 56.5,57.1667 57.1667,56.5 58.5,56.5C 59.452,57.452 60.452,58.452 61.5,59.5C 61.8333,59.1667 62.1667,58.8333 62.5,58.5C 59.75,56.6882 59.0834,54.3549 60.5,51.5C 59.7703,49.955 58.437,49.1216 56.5,49C 58.8483,48.8898 60.3483,47.7231 61,45.5C 61.2163,47.3839 61.883,49.0506 63,50.5C 63.7172,49.9558 64.2172,49.2891 64.5,48.5C 65.8671,47.1474 66.8671,47.4807 67.5,49.5C 64.8694,51.0046 65.2027,51.6713 68.5,51.5C 68.3433,50.1266 68.51,48.7932 69,47.5C 69.7175,48.4506 70.5509,48.6172 71.5,48C 69.9926,47.1627 69.4926,45.9961 70,44.5C 71.7255,43.536 73.5588,42.8693 75.5,42.5 Z"/></g>
<g><path style="opacity:1" fill="#2d2455" d="M 28.5,69.5 C 29.7079,70.2341 31.0413,70.5674 32.5,70.5C 32.5,71.5 32.5,72.5 32.5,73.5C 33.552,73.3505 34.552,73.5172 35.5,74C 33.4658,75.2053 31.4658,75.372 29.5,74.5C 30.1667,73.8333 30.8333,73.1667 31.5,72.5C 31.0623,71.4937 30.3957,71.4937 29.5,72.5C 28.6143,71.675 28.281,70.675 28.5,69.5 Z"/></g>
<g><path style="opacity:1" fill="#746153" d="M 51.5,72.5 C 49.1667,75.5 46.5,78.1667 43.5,80.5C 42.7564,77.0504 44.0897,75.3838 47.5,75.5C 47.13,71.8141 48.4633,70.8141 51.5,72.5 Z"/></g>
</svg>
