<?xml version="1.0" encoding="UTF-8"?>
<!DOCTYPE svg PUBLIC "-//W3C//DTD SVG 1.1//EN" "http://www.w3.org/Graphics/SVG/1.1/DTD/svg11.dtd">
<svg xmlns="http://www.w3.org/2000/svg" version="1.1" width="84px" height="100px" style="shape-rendering:geometricPrecision; text-rendering:geometricPrecision; image-rendering:optimizeQuality; fill-rule:evenodd; clip-rule:evenodd" xmlns:xlink="http://www.w3.org/1999/xlink">
<g><path style="opacity:1" fill="#fefefe" d="M -0.5,-0.5 C 27.5,-0.5 55.5,-0.5 83.5,-0.5C 83.5,32.8333 83.5,66.1667 83.5,99.5C 55.5,99.5 27.5,99.5 -0.5,99.5C -0.5,66.1667 -0.5,32.8333 -0.5,-0.5 Z"/></g>
<g><path style="opacity:1" fill="#a1a0a5" d="M 53.5,4.5 C 56.0118,3.13264 58.3452,3.46597 60.5,5.5C 59.8333,5.5 59.1667,5.5 58.5,5.5C 56.9582,4.69929 55.2915,4.36596 53.5,4.5 Z"/></g>
<g><path style="opacity:1" fill="#121013" d="M 52.5,4.5 C 52.8333,4.5 53.1667,4.5 53.5,4.5C 55.2915,4.36596 56.9582,4.69929 58.5,5.5C 60.1166,8.07645 59.7833,9.07645 57.5,8.5C 54.3948,7.53391 52.3948,8.86725 51.5,12.5C 52.8336,15.8338 54.1669,19.1671 55.5,22.5C 56.3984,23.1577 57.3984,23.8243 58.5,24.5C 58.1373,25.1835 57.8039,25.8501 57.5,26.5C 55.5212,25.1879 53.8545,23.5212 52.5,21.5C 50.822,19.1476 48.4887,17.8143 45.5,17.5C 45.5,17.1667 45.5,16.8333 45.5,16.5C 46.1667,14.1667 46.8333,11.8333 47.5,9.5C 49.5,8.16667 51.1667,6.5 52.5,4.5 Z"/></g>
<g><path style="opacity:1" fill="#949297" d="M 15.5,5.5 C 15.5,5.83333 15.5,6.16667 15.5,6.5C 9.02008,11.8929 6.68675,18.5595 8.5,26.5C 9.16667,28.8333 9.83333,31.1667 10.5,33.5C 8.8639,32.2511 7.69724,30.5844 7,28.5C 5.40039,21.132 6.73372,14.4654 11,8.5C 12.129,6.85883 13.629,5.85883 15.5,5.5 Z"/></g>
<g><path style="opacity:1" fill="#0d0b0e" d="M 15.5,6.5 C 19.3734,6.33401 20.0401,7.33401 17.5,9.5C 15.5613,10.0138 14.5613,11.3472 14.5,13.5C 14.8008,15.4216 15.4675,17.0883 16.5,18.5C 17.2485,20.3325 18.2485,21.9991 19.5,23.5C 20.6005,24.6049 21.2671,25.9382 21.5,27.5C 20.8333,27.5 20.1667,27.5 19.5,27.5C 19.1667,26.5 18.5,25.8333 17.5,25.5C 17.1193,24.0689 16.1193,23.2355 14.5,23C 12.9343,22.235 11.6009,22.4017 10.5,23.5C 9.83333,24.5 9.16667,25.5 8.5,26.5C 6.68675,18.5595 9.02008,11.8929 15.5,6.5 Z"/></g>
<g><path style="opacity:1" fill="#a9a0ad" d="M 20.5,5.5 C 25.7773,7.77744 29.7773,11.4441 32.5,16.5C 31.8333,16.1667 31.1667,15.8333 30.5,15.5C 28.1667,12.5 25.5,9.83333 22.5,7.5C 21.5,7.16667 20.8333,6.5 20.5,5.5 Z"/></g>
<g><path style="opacity:1" fill="#98929c" d="M 60.5,5.5 C 63.8553,6.85523 66.1886,9.18856 67.5,12.5C 66.8333,12.1667 66.1667,11.8333 65.5,11.5C 63.7806,9.4559 62.1139,7.4559 60.5,5.5 Z"/></g>
<g><path style="opacity:1" fill="#3a353d" d="M 15.5,6.5 C 15.5,6.16667 15.5,5.83333 15.5,5.5C 17.1667,5.5 18.8333,5.5 20.5,5.5C 20.8333,6.5 21.5,7.16667 22.5,7.5C 22.1667,8.83333 21.8333,10.1667 21.5,11.5C 20.5084,11.6716 19.8417,11.3382 19.5,10.5C 19.1583,9.66175 18.4916,9.32842 17.5,9.5C 20.0401,7.33401 19.3734,6.33401 15.5,6.5 Z"/></g>
<g><path style="opacity:1" fill="#96989b" d="M 52.5,4.5 C 51.1667,6.5 49.5,8.16667 47.5,9.5C 48.1667,6.83333 49.8333,5.16667 52.5,4.5 Z"/></g>
<g><path style="opacity:1" fill="#7d5781" d="M 22.5,7.5 C 25.5,9.83333 28.1667,12.5 30.5,15.5C 29.8333,15.5 29.5,15.8333 29.5,16.5C 27.8523,15.1902 26.1856,13.8569 24.5,12.5C 23.5481,14.0453 23.2148,15.712 23.5,17.5C 22.8333,16.5 22.1667,15.5 21.5,14.5C 21.5,13.5 21.5,12.5 21.5,11.5C 21.8333,10.1667 22.1667,8.83333 22.5,7.5 Z"/></g>
<g><path style="opacity:1" fill="#969798" d="M 17.5,9.5 C 18.4916,9.32842 19.1583,9.66175 19.5,10.5C 18.5,10.5 17.5,10.5 16.5,10.5C 16.5,13.1667 16.5,15.8333 16.5,18.5C 15.4675,17.0883 14.8008,15.4216 14.5,13.5C 14.5613,11.3472 15.5613,10.0138 17.5,9.5 Z"/></g>
<g><path style="opacity:1" fill="#d5d3d6" d="M 19.5,10.5 C 19.8417,11.3382 20.5084,11.6716 21.5,11.5C 21.5,12.5 21.5,13.5 21.5,14.5C 22.0545,18.0122 21.3878,21.0122 19.5,23.5C 18.2485,21.9991 17.2485,20.3325 16.5,18.5C 16.5,15.8333 16.5,13.1667 16.5,10.5C 17.5,10.5 18.5,10.5 19.5,10.5 Z"/></g>
<g><path style="opacity:1" fill="#a5a0a8" d="M 57.5,8.5 C 57.5,9.16667 57.5,9.83333 57.5,10.5C 58.1174,10.6107 58.6174,10.944 59,11.5C 59.4983,14.8168 59.665,18.1501 59.5,21.5C 59.5,21.8333 59.5,22.1667 59.5,22.5C 58.1667,22.5 56.8333,22.5 55.5,22.5C 54.1669,19.1671 52.8336,15.8338 51.5,12.5C 52.3948,8.86725 54.3948,7.53391 57.5,8.5 Z"/></g>
<g><path style="opacity:1" fill="#e1e1e2" d="M 57.5,10.5 C 58.6658,13.8298 58.6658,17.1631 57.5,20.5C 53.3779,16.753 52.8779,12.753 56,8.5C 56.2784,9.4158 56.7784,10.0825 57.5,10.5 Z"/></g>
<g><path style="opacity:1" fill="#6f4e70" d="M 58.5,5.5 C 59.1667,5.5 59.8333,5.5 60.5,5.5C 62.1139,7.4559 63.7806,9.4559 65.5,11.5C 63.8632,10.7822 62.1966,10.6155 60.5,11C 61.435,13.3806 61.7683,15.8806 61.5,18.5C 61.4431,19.609 61.1098,20.609 60.5,21.5C 60.1667,21.5 59.8333,21.5 59.5,21.5C 59.665,18.1501 59.4983,14.8168 59,11.5C 58.6174,10.944 58.1174,10.6107 57.5,10.5C 57.5,9.83333 57.5,9.16667 57.5,8.5C 59.7833,9.07645 60.1166,8.07645 58.5,5.5 Z"/></g>
<g><path style="opacity:1" fill="#744c79" d="M 65.5,11.5 C 66.1667,11.8333 66.8333,12.1667 67.5,12.5C 68.6298,14.3146 69.2964,16.3146 69.5,18.5C 69.5,19.8333 69.5,21.1667 69.5,22.5C 69.1667,22.5 68.8333,22.5 68.5,22.5C 67.759,18.7077 66.759,15.0411 65.5,11.5 Z"/></g>
<g><path style="opacity:1" fill="#be6cc1" d="M 65.5,11.5 C 66.759,15.0411 67.759,18.7077 68.5,22.5C 66.1771,21.2499 63.8437,19.9166 61.5,18.5C 61.7683,15.8806 61.435,13.3806 60.5,11C 62.1966,10.6155 63.8632,10.7822 65.5,11.5 Z"/></g>
<g><path style="opacity:1" fill="#c287c3" d="M 29.5,16.5 C 29.5569,17.609 29.8902,18.609 30.5,19.5C 30.44,20.0431 30.1067,20.3764 29.5,20.5C 27.8211,18.8955 25.8211,18.2289 23.5,18.5C 23.5,18.1667 23.5,17.8333 23.5,17.5C 23.2148,15.712 23.5481,14.0453 24.5,12.5C 26.1856,13.8569 27.8523,15.1902 29.5,16.5 Z"/></g>
<g><path style="opacity:1" fill="#3b0d42" d="M 45.5,17.5 C 48.4887,17.8143 50.822,19.1476 52.5,21.5C 50.4513,20.3586 48.4513,20.3586 46.5,21.5C 46.1667,20.1667 45.8333,18.8333 45.5,17.5 Z"/></g>
<g><path style="opacity:1" fill="#837b87" d="M 21.5,14.5 C 22.1667,15.5 22.8333,16.5 23.5,17.5C 23.5,17.8333 23.5,18.1667 23.5,18.5C 23.6323,21.5701 23.299,24.5701 22.5,27.5C 22.1667,27.5 21.8333,27.5 21.5,27.5C 21.2671,25.9382 20.6005,24.6049 19.5,23.5C 21.3878,21.0122 22.0545,18.0122 21.5,14.5 Z"/></g>
<g><path style="opacity:1" fill="#762b7d" d="M 52.5,21.5 C 53.8545,23.5212 55.5212,25.1879 57.5,26.5C 57.5,26.8333 57.5,27.1667 57.5,27.5C 57.5,28.8333 57.5,30.1667 57.5,31.5C 56.0439,33.3704 54.7105,35.3704 53.5,37.5C 52.0998,36.8999 51.0998,35.8999 50.5,34.5C 55.1911,31.1707 55.5245,27.3373 51.5,23C 50.2068,22.51 48.8734,22.3433 47.5,22.5C 47.5,23.5 47.5,24.5 47.5,25.5C 46.5655,24.4324 46.2322,23.099 46.5,21.5C 48.4513,20.3586 50.4513,20.3586 52.5,21.5 Z"/></g>
<g><path style="opacity:1" fill="#350a3e" d="M 10.5,23.5 C 11.6009,22.4017 12.9343,22.235 14.5,23C 16.1193,23.2355 17.1193,24.0689 17.5,25.5C 15.2986,24.4336 12.9653,23.767 10.5,23.5 Z"/></g>
<g><path style="opacity:1" fill="#ce99cd" d="M 61.5,18.5 C 63.8437,19.9166 66.1771,21.2499 68.5,22.5C 68.8333,22.5 69.1667,22.5 69.5,22.5C 69.5,23.8333 69.5,25.1667 69.5,26.5C 66.8018,25.8575 64.1351,25.0242 61.5,24C 60.7476,23.3292 60.4142,22.4959 60.5,21.5C 61.1098,20.609 61.4431,19.609 61.5,18.5 Z"/></g>
<g><path style="opacity:1" fill="#661a6f" d="M 10.5,23.5 C 12.9653,23.767 15.2986,24.4336 17.5,25.5C 18.5,25.8333 19.1667,26.5 19.5,27.5C 19.5,28.1667 19.1667,28.5 18.5,28.5C 16.7354,27.5386 14.7354,27.2053 12.5,27.5C 12.5,28.5 12.5,29.5 12.5,30.5C 11.0762,28.4855 10.4095,26.1522 10.5,23.5 Z"/></g>
<g><path style="opacity:1" fill="#59515f" d="M 30.5,15.5 C 31.1667,15.8333 31.8333,16.1667 32.5,16.5C 33.6415,20.6217 34.6415,24.7884 35.5,29C 34.4202,34.1523 33.4202,39.3189 32.5,44.5C 31.7777,43.4489 30.7777,42.7822 29.5,42.5C 29.5,41.8333 29.5,41.1667 29.5,40.5C 30.1174,40.3893 30.6174,40.056 31,39.5C 31.4955,37.5273 31.6621,35.5273 31.5,33.5C 32.6636,28.6712 32.3303,24.0045 30.5,19.5C 29.8902,18.609 29.5569,17.609 29.5,16.5C 29.5,15.8333 29.8333,15.5 30.5,15.5 Z"/></g>
<g><path style="opacity:1" fill="#69496e" d="M 45.5,16.5 C 45.5,16.8333 45.5,17.1667 45.5,17.5C 45.8333,18.8333 46.1667,20.1667 46.5,21.5C 46.2322,23.099 46.5655,24.4324 47.5,25.5C 48.2163,28.5982 49.2163,31.5982 50.5,34.5C 51.0998,35.8999 52.0998,36.8999 53.5,37.5C 51.8582,42.0657 50.5248,46.7323 49.5,51.5C 48.1667,53.1667 46.8333,54.8333 45.5,56.5C 45.5,55.1667 45.5,53.8333 45.5,52.5C 47.2132,51.3646 47.8799,49.698 47.5,47.5C 48.1174,47.3893 48.6174,47.056 49,46.5C 49.6667,42.8333 49.6667,39.1667 49,35.5C 45.0824,29.5308 43.9158,23.1975 45.5,16.5 Z"/></g>
<g><path style="opacity:1" fill="#b140b9" d="M 50.5,34.5 C 49.2163,31.5982 48.2163,28.5982 47.5,25.5C 47.5,24.5 47.5,23.5 47.5,22.5C 48.8734,22.3433 50.2068,22.51 51.5,23C 55.5245,27.3373 55.1911,31.1707 50.5,34.5 Z"/></g>
<g><path style="opacity:1" fill="#7c6980" d="M 55.5,22.5 C 56.8333,22.5 58.1667,22.5 59.5,22.5C 59.7845,24.4147 59.4511,26.0813 58.5,27.5C 58.1667,27.5 57.8333,27.5 57.5,27.5C 57.5,27.1667 57.5,26.8333 57.5,26.5C 57.8039,25.8501 58.1373,25.1835 58.5,24.5C 57.3984,23.8243 56.3984,23.1577 55.5,22.5 Z"/></g>
<g><path style="opacity:1" fill="#cdaacd" d="M 23.5,18.5 C 25.8211,18.2289 27.8211,18.8955 29.5,20.5C 30.1067,20.3764 30.44,20.0431 30.5,19.5C 32.3303,24.0045 32.6636,28.6712 31.5,33.5C 31.1667,33.5 30.8333,33.5 30.5,33.5C 29.0484,32.6981 27.3817,32.1981 25.5,32C 23.5614,31.0922 22.5614,29.5922 22.5,27.5C 23.299,24.5701 23.6323,21.5701 23.5,18.5 Z"/></g>
<g><path style="opacity:1" fill="#cea4cc" d="M 59.5,21.5 C 59.8333,21.5 60.1667,21.5 60.5,21.5C 60.4142,22.4959 60.7476,23.3292 61.5,24C 64.1351,25.0242 66.8018,25.8575 69.5,26.5C 69.6641,29.1873 69.4974,31.854 69,34.5C 68.6174,35.056 68.1174,35.3893 67.5,35.5C 67.5858,34.5041 67.2524,33.6708 66.5,33C 63.5269,31.3682 60.8603,29.5349 58.5,27.5C 59.4511,26.0813 59.7845,24.4147 59.5,22.5C 59.5,22.1667 59.5,21.8333 59.5,21.5 Z"/></g>
<g><path style="opacity:1" fill="#9f97a2" d="M 47.5,9.5 C 46.8333,11.8333 46.1667,14.1667 45.5,16.5C 43.9158,23.1975 45.0824,29.5308 49,35.5C 49.6667,39.1667 49.6667,42.8333 49,46.5C 48.6174,47.056 48.1174,47.3893 47.5,47.5C 48.5114,43.8878 48.6781,40.2211 48,36.5C 43.3729,28.9918 42.3729,20.9918 45,12.5C 45.8518,11.4293 46.6851,10.4293 47.5,9.5 Z"/></g>
<g><path style="opacity:1" fill="#ab44ab" d="M 18.5,28.5 C 18.1667,31.1667 17.8333,33.8333 17.5,36.5C 16.5,36.5 15.5,36.5 14.5,36.5C 13.6373,34.5786 12.9707,32.5786 12.5,30.5C 12.5,29.5 12.5,28.5 12.5,27.5C 14.7354,27.2053 16.7354,27.5386 18.5,28.5 Z"/></g>
<g><path style="opacity:1" fill="#c77cc2" d="M 57.5,27.5 C 57.8333,27.5 58.1667,27.5 58.5,27.5C 60.8603,29.5349 63.5269,31.3682 66.5,33C 67.2524,33.6708 67.5858,34.5041 67.5,35.5C 67.5997,38.1085 66.9331,40.4418 65.5,42.5C 65.1667,42.5 64.8333,42.5 64.5,42.5C 67.4624,35.4625 65.129,31.7958 57.5,31.5C 57.5,30.1667 57.5,28.8333 57.5,27.5 Z"/></g>
<g><path style="opacity:1" fill="#d48bd1" d="M 21.5,27.5 C 21.8333,27.5 22.1667,27.5 22.5,27.5C 22.5614,29.5922 23.5614,31.0922 25.5,32C 27.3817,32.1981 29.0484,32.6981 30.5,33.5C 30.5,34.5 30.5,35.5 30.5,36.5C 29.8333,36.5 29.1667,36.5 28.5,36.5C 26.0103,34.6436 23.3437,33.3103 20.5,32.5C 21.3007,30.9582 21.634,29.2915 21.5,27.5 Z"/></g>
<g><path style="opacity:1" fill="#614064" d="M 10.5,23.5 C 10.4095,26.1522 11.0762,28.4855 12.5,30.5C 12.9707,32.5786 13.6373,34.5786 14.5,36.5C 14.7031,38.0443 15.3698,39.3777 16.5,40.5C 15.6906,42.0709 15.3573,43.7376 15.5,45.5C 15.3404,47.153 14.6737,48.4863 13.5,49.5C 15.3025,43.5178 14.3025,38.1845 10.5,33.5C 9.83333,31.1667 9.16667,28.8333 8.5,26.5C 9.16667,25.5 9.83333,24.5 10.5,23.5 Z"/></g>
<g><path style="opacity:1" fill="#a0a3a6" d="M 32.5,16.5 C 34.1632,18.4927 35.3299,20.8261 36,23.5C 36.9144,30.4517 36.4144,37.285 34.5,44C 35.7017,46.903 37.035,49.7364 38.5,52.5C 36.8058,51.4726 35.4725,50.1392 34.5,48.5C 33.6554,47.3285 32.9887,45.9952 32.5,44.5C 33.4202,39.3189 34.4202,34.1523 35.5,29C 34.6415,24.7884 33.6415,20.6217 32.5,16.5 Z"/></g>
<g><path style="opacity:1" fill="#a396a6" d="M 10.5,33.5 C 14.3025,38.1845 15.3025,43.5178 13.5,49.5C 12.8333,49.8333 12.1667,50.1667 11.5,50.5C 12.0382,47.8111 12.7049,45.1444 13.5,42.5C 12.199,39.5729 11.199,36.5729 10.5,33.5 Z"/></g>
<g><path style="opacity:1" fill="#7f3c82" d="M 19.5,27.5 C 20.1667,27.5 20.8333,27.5 21.5,27.5C 21.634,29.2915 21.3007,30.9582 20.5,32.5C 18.6608,36.5981 17.3275,40.9315 16.5,45.5C 16.1667,45.5 15.8333,45.5 15.5,45.5C 15.3573,43.7376 15.6906,42.0709 16.5,40.5C 15.3698,39.3777 14.7031,38.0443 14.5,36.5C 15.5,36.5 16.5,36.5 17.5,36.5C 17.8333,33.8333 18.1667,31.1667 18.5,28.5C 19.1667,28.5 19.5,28.1667 19.5,27.5 Z"/></g>
<g><path style="opacity:1" fill="#d96ad5" d="M 20.5,32.5 C 23.3437,33.3103 26.0103,34.6436 28.5,36.5C 26.3843,44.8533 24.0509,53.1866 21.5,61.5C 19.5696,59.5455 17.4029,57.8788 15,56.5C 14.86,52.766 15.36,49.0993 16.5,45.5C 17.3275,40.9315 18.6608,36.5981 20.5,32.5 Z"/></g>
<g><path style="opacity:1" fill="#403244" d="M 69.5,18.5 C 70.2216,18.9175 70.7216,19.5842 71,20.5C 71.1667,23 71.3333,25.5 71.5,28C 70.9355,33.2791 69.9355,38.4457 68.5,43.5C 67.7784,43.0825 67.2784,42.4158 67,41.5C 66.6174,42.056 66.1174,42.3893 65.5,42.5C 66.9331,40.4418 67.5997,38.1085 67.5,35.5C 68.1174,35.3893 68.6174,35.056 69,34.5C 69.4974,31.854 69.6641,29.1873 69.5,26.5C 69.5,25.1667 69.5,23.8333 69.5,22.5C 69.5,21.1667 69.5,19.8333 69.5,18.5 Z"/></g>
<g><path style="opacity:1" fill="#8a568f" d="M 30.5,33.5 C 30.8333,33.5 31.1667,33.5 31.5,33.5C 31.6621,35.5273 31.4955,37.5273 31,39.5C 30.6174,40.056 30.1174,40.3893 29.5,40.5C 29.8333,39.1667 30.1667,37.8333 30.5,36.5C 30.5,35.5 30.5,34.5 30.5,33.5 Z"/></g>
<g><path style="opacity:1" fill="#0e090e" d="M 68.5,43.5 C 69.6737,44.5137 70.3404,45.847 70.5,47.5C 70.631,48.2389 70.4643,48.9056 70,49.5C 68.3845,48.1991 66.8845,48.1991 65.5,49.5C 64.5084,49.6716 63.8417,49.3382 63.5,48.5C 63.5,48.1667 63.5,47.8333 63.5,47.5C 65.2132,46.3646 65.8799,44.698 65.5,42.5C 66.1174,42.3893 66.6174,42.056 67,41.5C 67.2784,42.4158 67.7784,43.0825 68.5,43.5 Z"/></g>
<g><path style="opacity:1" fill="#97979d" d="M 67.5,12.5 C 70.3239,14.7996 72.1572,17.7996 73,21.5C 74.2346,29.12 73.4013,36.4534 70.5,43.5C 71.4565,45.0754 72.1231,46.742 72.5,48.5C 72.1667,48.5 71.8333,48.5 71.5,48.5C 71.5,47.8333 71.1667,47.5 70.5,47.5C 70.3404,45.847 69.6737,44.5137 68.5,43.5C 69.9355,38.4457 70.9355,33.2791 71.5,28C 71.3333,25.5 71.1667,23 71,20.5C 70.7216,19.5842 70.2216,18.9175 69.5,18.5C 69.2964,16.3146 68.6298,14.3146 67.5,12.5 Z"/></g>
<g><path style="opacity:1" fill="#150f16" d="M 29.5,42.5 C 30.7777,42.7822 31.7777,43.4489 32.5,44.5C 32.9887,45.9952 33.6554,47.3285 34.5,48.5C 34.6716,49.4916 34.3382,50.1583 33.5,50.5C 32.5,50.1667 31.8333,49.5 31.5,48.5C 30.032,47.2209 29.3653,45.5542 29.5,43.5C 29.5,43.1667 29.5,42.8333 29.5,42.5 Z"/></g>
<g><path style="opacity:1" fill="#542655" d="M 64.5,42.5 C 64.8333,42.5 65.1667,42.5 65.5,42.5C 65.8799,44.698 65.2132,46.3646 63.5,47.5C 64.038,45.8828 64.3713,44.2161 64.5,42.5 Z"/></g>
<g><path style="opacity:1" fill="#35103a" d="M 29.5,43.5 C 29.3653,45.5542 30.032,47.2209 31.5,48.5C 30.0568,49.3351 29.0568,50.6684 28.5,52.5C 27.8933,52.3764 27.56,52.0431 27.5,51.5C 27.2938,48.5049 27.9605,45.8383 29.5,43.5 Z"/></g>
<g><path style="opacity:1" fill="#aca0b0" d="M 47.5,47.5 C 47.8799,49.698 47.2132,51.3646 45.5,52.5C 45.7959,50.597 46.4625,48.9303 47.5,47.5 Z"/></g>
<g><path style="opacity:1" fill="#923694" d="M 65.5,49.5 C 67.9477,49.0847 69.2811,50.0847 69.5,52.5C 67.7003,55.6377 66.367,58.971 65.5,62.5C 64.8333,62.5 64.1667,62.5 63.5,62.5C 63.3739,60.8002 62.7073,59.3002 61.5,58C 62.9351,55.1848 64.2684,52.3515 65.5,49.5 Z"/></g>
<g><path style="opacity:1" fill="#715a73" d="M 13.5,49.5 C 13.5,51.8333 13.5,54.1667 13.5,56.5C 12.8333,56.5 12.1667,56.5 11.5,56.5C 11.5,54.5 11.5,52.5 11.5,50.5C 12.1667,50.1667 12.8333,49.8333 13.5,49.5 Z"/></g>
<g><path style="opacity:1" fill="#ab58ae" d="M 49.5,51.5 C 49.152,53.7128 48.3187,55.7128 47,57.5C 46.5034,59.8098 46.3367,62.1432 46.5,64.5C 45.5386,62.7354 45.2053,60.7354 45.5,58.5C 45.5,57.8333 45.5,57.1667 45.5,56.5C 46.8333,54.8333 48.1667,53.1667 49.5,51.5 Z"/></g>
<g><path style="opacity:1" fill="#2c1432" d="M 27.5,62.5 C 26.4324,63.4345 25.099,63.7678 23.5,63.5C 23.5,63.1667 23.5,62.8333 23.5,62.5C 24.1667,60.1667 24.8333,57.8333 25.5,55.5C 26.2216,55.0825 26.7216,54.4158 27,53.5C 27.498,56.4816 27.6646,59.4816 27.5,62.5 Z"/></g>
<g><path style="opacity:1" fill="#a7a1ad" d="M 38.5,52.5 C 40.1288,53.6253 41.6288,54.9586 43,56.5C 43.9344,55.1416 44.7677,53.8083 45.5,52.5C 45.5,53.8333 45.5,55.1667 45.5,56.5C 44.5178,57.1408 43.5178,57.8075 42.5,58.5C 40.7224,56.736 39.3891,54.736 38.5,52.5 Z"/></g>
<g><path style="opacity:1" fill="#ac9eb2" d="M 11.5,56.5 C 12.1667,56.5 12.8333,56.5 13.5,56.5C 13.427,58.0269 14.0937,59.0269 15.5,59.5C 17.1667,61.8333 19.1667,63.8333 21.5,65.5C 21.5,66.1667 21.5,66.8333 21.5,67.5C 17.4342,64.4372 14.1009,60.7706 11.5,56.5 Z"/></g>
<g><path style="opacity:1" fill="#621c6d" d="M 31.5,48.5 C 31.8333,49.5 32.5,50.1667 33.5,50.5C 34.5,51.8333 35.5,53.1667 36.5,54.5C 29.7031,52.6279 27.0364,55.2945 28.5,62.5C 28.1667,62.5 27.8333,62.5 27.5,62.5C 27.6646,59.4816 27.498,56.4816 27,53.5C 26.7216,54.4158 26.2216,55.0825 25.5,55.5C 25.1568,53.5168 25.8235,52.1834 27.5,51.5C 27.56,52.0431 27.8933,52.3764 28.5,52.5C 29.0568,50.6684 30.0568,49.3351 31.5,48.5 Z"/></g>
<g><path style="opacity:1" fill="#59405e" d="M 34.5,48.5 C 35.4725,50.1392 36.8058,51.4726 38.5,52.5C 39.3891,54.736 40.7224,56.736 42.5,58.5C 43.5178,57.8075 44.5178,57.1408 45.5,56.5C 45.5,57.1667 45.5,57.8333 45.5,58.5C 44.596,59.209 44.2627,60.209 44.5,61.5C 43.5,61.5 42.5,61.5 41.5,61.5C 40.076,58.9821 38.4093,56.6488 36.5,54.5C 35.5,53.1667 34.5,51.8333 33.5,50.5C 34.3382,50.1583 34.6716,49.4916 34.5,48.5 Z"/></g>
<g><path style="opacity:1" fill="#d469d2" d="M 57.5,31.5 C 65.129,31.7958 67.4624,35.4625 64.5,42.5C 64.3713,44.2161 64.038,45.8828 63.5,47.5C 63.5,47.8333 63.5,48.1667 63.5,48.5C 60.5944,53.9813 57.9278,59.648 55.5,65.5C 54.9764,68.8396 52.9764,70.5062 49.5,70.5C 48.9708,68.2156 47.9708,66.2156 46.5,64.5C 46.3367,62.1432 46.5034,59.8098 47,57.5C 48.3187,55.7128 49.152,53.7128 49.5,51.5C 50.5248,46.7323 51.8582,42.0657 53.5,37.5C 54.7105,35.3704 56.0439,33.3704 57.5,31.5 Z"/></g>
<g><path style="opacity:1" fill="#6a6972" d="M 71.5,48.5 C 71.8333,48.5 72.1667,48.5 72.5,48.5C 73.3382,48.8417 73.6716,49.5084 73.5,50.5C 73.218,55.7369 71.218,60.0702 67.5,63.5C 67.5,62.8333 67.5,62.1667 67.5,61.5C 71.0043,58.0079 72.3377,53.6746 71.5,48.5 Z"/></g>
<g><path style="opacity:1" fill="#a230ad" d="M 36.5,54.5 C 35.4344,56.5189 34.2677,58.5189 33,60.5C 32.5034,62.8098 32.3367,65.1432 32.5,67.5C 32.1667,67.5 31.8333,67.5 31.5,67.5C 30.7515,65.6675 29.7515,64.0009 28.5,62.5C 27.0364,55.2945 29.7031,52.6279 36.5,54.5 Z"/></g>
<g><path style="opacity:1" fill="#8f5e97" d="M 15.5,59.5 C 17.7808,61.4279 20.4475,62.4279 23.5,62.5C 23.5,62.8333 23.5,63.1667 23.5,63.5C 22.8333,64.1667 22.1667,64.8333 21.5,65.5C 19.1667,63.8333 17.1667,61.8333 15.5,59.5 Z"/></g>
<g><path style="opacity:1" fill="#b15db3" d="M 28.5,36.5 C 29.1667,36.5 29.8333,36.5 30.5,36.5C 30.1667,37.8333 29.8333,39.1667 29.5,40.5C 29.5,41.1667 29.5,41.8333 29.5,42.5C 29.5,42.8333 29.5,43.1667 29.5,43.5C 27.9605,45.8383 27.2938,48.5049 27.5,51.5C 25.8235,52.1834 25.1568,53.5168 25.5,55.5C 24.8333,57.8333 24.1667,60.1667 23.5,62.5C 20.4475,62.4279 17.7808,61.4279 15.5,59.5C 14.0937,59.0269 13.427,58.0269 13.5,56.5C 13.5,54.1667 13.5,51.8333 13.5,49.5C 14.6737,48.4863 15.3404,47.153 15.5,45.5C 15.8333,45.5 16.1667,45.5 16.5,45.5C 15.36,49.0993 14.86,52.766 15,56.5C 17.4029,57.8788 19.5696,59.5455 21.5,61.5C 24.0509,53.1866 26.3843,44.8533 28.5,36.5 Z"/></g>
<g><path style="opacity:1" fill="#46254a" d="M 63.5,48.5 C 63.8417,49.3382 64.5084,49.6716 65.5,49.5C 64.2684,52.3515 62.9351,55.1848 61.5,58C 62.7073,59.3002 63.3739,60.8002 63.5,62.5C 62.4168,62.4606 61.4168,62.1272 60.5,61.5C 58.4878,64.0837 56.8211,66.7504 55.5,69.5C 55.5,68.1667 55.5,66.8333 55.5,65.5C 57.9278,59.648 60.5944,53.9813 63.5,48.5 Z"/></g>
<g><path style="opacity:1" fill="#462848" d="M 70.5,47.5 C 71.1667,47.5 71.5,47.8333 71.5,48.5C 72.3377,53.6746 71.0043,58.0079 67.5,61.5C 66.8333,61.8333 66.1667,62.1667 65.5,62.5C 66.367,58.971 67.7003,55.6377 69.5,52.5C 69.2811,50.0847 67.9477,49.0847 65.5,49.5C 66.8845,48.1991 68.3845,48.1991 70,49.5C 70.4643,48.9056 70.631,48.2389 70.5,47.5 Z"/></g>
<g><path style="opacity:1" fill="#28202a" d="M 67.5,61.5 C 67.5,62.1667 67.5,62.8333 67.5,63.5C 66.5178,64.1408 65.5178,64.8075 64.5,65.5C 63.8933,65.3764 63.56,65.0431 63.5,64.5C 63.5,63.8333 63.5,63.1667 63.5,62.5C 64.1667,62.5 64.8333,62.5 65.5,62.5C 66.1667,62.1667 66.8333,61.8333 67.5,61.5 Z"/></g>
<g><path style="opacity:1" fill="#d166cf" d="M 36.5,54.5 C 38.4093,56.6488 40.076,58.9821 41.5,61.5C 44.078,65.6464 46.9113,69.6464 50,73.5C 50.5564,75.8848 50.3897,78.2181 49.5,80.5C 48.8333,82.5 48.1667,84.5 47.5,86.5C 46.5768,87.3029 45.5768,87.4696 44.5,87C 43.2509,85.02 41.9176,83.1867 40.5,81.5C 40.1667,81.5 39.8333,81.5 39.5,81.5C 37.6916,76.5499 35.3583,71.8832 32.5,67.5C 32.3367,65.1432 32.5034,62.8098 33,60.5C 34.2677,58.5189 35.4344,56.5189 36.5,54.5 Z"/></g>
<g><path style="opacity:1" fill="#9ea4a5" d="M 73.5,50.5 C 74.6225,52.2884 74.7891,54.2884 74,56.5C 72.7723,60.0587 71.1056,63.392 69,66.5C 66.4082,67.9817 64.0749,67.6483 62,65.5C 61.6232,66.9423 60.7899,67.9423 59.5,68.5C 59.4638,65.1065 60.7972,63.7732 63.5,64.5C 63.56,65.0431 63.8933,65.3764 64.5,65.5C 65.5178,64.8075 66.5178,64.1408 67.5,63.5C 71.218,60.0702 73.218,55.7369 73.5,50.5 Z"/></g>
<g><path style="opacity:1" fill="#797a81" d="M 63.5,62.5 C 63.5,63.1667 63.5,63.8333 63.5,64.5C 60.7972,63.7732 59.4638,65.1065 59.5,68.5C 58.0787,71.0094 56.4121,73.3428 54.5,75.5C 55.038,73.8828 55.3713,72.2161 55.5,70.5C 55.5,70.1667 55.5,69.8333 55.5,69.5C 56.8211,66.7504 58.4878,64.0837 60.5,61.5C 61.4168,62.1272 62.4168,62.4606 63.5,62.5 Z"/></g>
<g><path style="opacity:1" fill="#aaa9af" d="M 31.5,72.5 C 29.8506,71.3515 28.3506,70.0182 27,68.5C 24.8331,69.8264 22.9998,69.493 21.5,67.5C 23.4835,67.6168 25.1502,66.9501 26.5,65.5C 28.9099,67.3263 30.5766,69.6596 31.5,72.5 Z"/></g>
<g><path style="opacity:1" fill="#534057" d="M 27.5,62.5 C 27.8333,62.5 28.1667,62.5 28.5,62.5C 29.7515,64.0009 30.7515,65.6675 31.5,67.5C 32.6298,69.3146 33.2964,71.3146 33.5,73.5C 32.8333,73.1667 32.1667,72.8333 31.5,72.5C 30.5766,69.6596 28.9099,67.3263 26.5,65.5C 25.1502,66.9501 23.4835,67.6168 21.5,67.5C 21.5,66.8333 21.5,66.1667 21.5,65.5C 22.1667,64.8333 22.8333,64.1667 23.5,63.5C 25.099,63.7678 26.4324,63.4345 27.5,62.5 Z"/></g>
<g><path style="opacity:1" fill="#833b85" d="M 45.5,58.5 C 45.2053,60.7354 45.5386,62.7354 46.5,64.5C 47.9708,66.2156 48.9708,68.2156 49.5,70.5C 52.9764,70.5062 54.9764,68.8396 55.5,65.5C 55.5,66.8333 55.5,68.1667 55.5,69.5C 55.5,69.8333 55.5,70.1667 55.5,70.5C 52.6278,72.3365 51.2945,75.0032 51.5,78.5C 51.1667,79.5 50.5,80.1667 49.5,80.5C 50.3897,78.2181 50.5564,75.8848 50,73.5C 46.9113,69.6464 44.078,65.6464 41.5,61.5C 42.5,61.5 43.5,61.5 44.5,61.5C 44.2627,60.209 44.596,59.209 45.5,58.5 Z"/></g>
<g><path style="opacity:1" fill="#a79fad" d="M 31.5,72.5 C 32.1667,72.8333 32.8333,73.1667 33.5,73.5C 34.6298,75.3146 35.2964,77.3146 35.5,79.5C 33.412,77.6644 32.0787,75.3311 31.5,72.5 Z"/></g>
<g><path style="opacity:1" fill="#85528a" d="M 31.5,67.5 C 31.8333,67.5 32.1667,67.5 32.5,67.5C 35.3583,71.8832 37.6916,76.5499 39.5,81.5C 38.3951,80.3995 37.0618,79.7329 35.5,79.5C 35.2964,77.3146 34.6298,75.3146 33.5,73.5C 33.2964,71.3146 32.6298,69.3146 31.5,67.5 Z"/></g>
<g><path style="opacity:1" fill="#1e161f" d="M 55.5,70.5 C 55.3713,72.2161 55.038,73.8828 54.5,75.5C 53.596,76.209 53.2627,77.209 53.5,78.5C 52.8333,78.5 52.1667,78.5 51.5,78.5C 51.2945,75.0032 52.6278,72.3365 55.5,70.5 Z"/></g>
<g><path style="opacity:1" fill="#a0a7a7" d="M 59.5,68.5 C 56.8345,76.9927 53.6678,85.326 50,93.5C 47.8823,95.7074 45.7156,95.7074 43.5,93.5C 46.8876,94.0306 48.8876,92.6973 49.5,89.5C 50.3836,85.6076 51.7169,81.9409 53.5,78.5C 53.2627,77.209 53.596,76.209 54.5,75.5C 56.4121,73.3428 58.0787,71.0094 59.5,68.5 Z"/></g>
<g><path style="opacity:1" fill="#89758d" d="M 35.5,79.5 C 37.0618,79.7329 38.3951,80.3995 39.5,81.5C 39.8333,81.5 40.1667,81.5 40.5,81.5C 41.1168,84.3554 42.1168,87.0221 43.5,89.5C 43.5,90.5 43.5,91.5 43.5,92.5C 40.1197,88.7476 37.453,84.4143 35.5,79.5 Z"/></g>
<g><path style="opacity:1" fill="#925292" d="M 40.5,81.5 C 41.9176,83.1867 43.2509,85.02 44.5,87C 45.5768,87.4696 46.5768,87.3029 47.5,86.5C 47.5,87.5 47.5,88.5 47.5,89.5C 46.1667,89.5 44.8333,89.5 43.5,89.5C 42.1168,87.0221 41.1168,84.3554 40.5,81.5 Z"/></g>
<g><path style="opacity:1" fill="#3f3343" d="M 51.5,78.5 C 52.1667,78.5 52.8333,78.5 53.5,78.5C 51.7169,81.9409 50.3836,85.6076 49.5,89.5C 48.0772,91.5449 46.0772,92.5449 43.5,92.5C 43.5,91.5 43.5,90.5 43.5,89.5C 44.8333,89.5 46.1667,89.5 47.5,89.5C 47.5,88.5 47.5,87.5 47.5,86.5C 48.1667,84.5 48.8333,82.5 49.5,80.5C 50.5,80.1667 51.1667,79.5 51.5,78.5 Z"/></g>
<g><path style="opacity:1" fill="#6c6770" d="M 49.5,89.5 C 48.8876,92.6973 46.8876,94.0306 43.5,93.5C 43.5,93.1667 43.5,92.8333 43.5,92.5C 46.0772,92.5449 48.0772,91.5449 49.5,89.5 Z"/></g>
</svg>
